<svg xmlns="http://www.w3.org/2000/svg" height="550" width="100%">
   <g transform="translate(150, 400) scale(.7)">
      <line x1="0"
            x2="400"
            y1="0"
            y2="0"
            stroke="black"
            stroke-width="1"
            stroke-linecap="square"/>
      <line x1="0"
            x2="0"
            y1="0"
            y2="-400"
            stroke="black"
            stroke-width="1"
            stroke-linecap="square"/>
      <text x="100"
            y="20"
            text-anchor="middle"
            transform="rotate(227, 100, 45)"
            writing-mode="tb">Rancher</text>
      <line x1="100"
            x2="100"
            y1="0"
            y2="-400"
            stroke="black"
            stroke-dasharray="8 4"
            stroke-width="1"/>
      <text x="200"
            y="20"
            text-anchor="middle"
            transform="rotate(227, 200, 45)"
            writing-mode="tb">Rancher's Wife</text>
      <line x1="200"
            x2="200"
            y1="0"
            y2="-400"
            stroke="black"
            stroke-dasharray="8 4"
            stroke-width="1"/>
      <text x="300"
            y="20"
            text-anchor="middle"
            transform="rotate(227, 300, 45)"
            writing-mode="tb">The Youth</text>
      <line x1="300"
            x2="300"
            y1="0"
            y2="-400"
            stroke="black"
            stroke-dasharray="8 4"
            stroke-width="1"/>
      <text x="-40" y="-100" text-anchor="middle">Narrator</text>
      <line x1="0"
            x2="400"
            y1="-100"
            y2="-100"
            stroke="black"
            stroke-dasharray="8 4"
            stroke-width="1"/>
      <text x="-40" y="-200" text-anchor="middle">Old Dame</text>
      <line x1="0"
            x2="400"
            y1="-200"
            y2="-200"
            stroke="black"
            stroke-dasharray="8 4"
            stroke-width="1"/>
      <text x="-40" y="-300" text-anchor="middle">Self</text>
      <line x1="0"
            x2="400"
            y1="-300"
            y2="-300"
            stroke="black"
            stroke-dasharray="8 4"
            stroke-width="1"/>
      <text x="200" y="-450" font-size="40" text-anchor="middle">
                        Relationships in Character Descriptors 
                    </text>
      <text x="-110"
            y="-200"
            font-size="35"
            transform="rotate(-90 -110, -200)"
            text-anchor="middle">
                        Speakers </text>
      <text x="200" y="150" font-size="35" text-anchor="middle">
                        Subjects </text>
      <rect x="450"
            y="-90"
            width="30"
            height="30"
            fill-opacity="0.7"
            fill="skyblue"
            stroke="black"/>
      <rect x="450"
            y="-150"
            width="30"
            height="30"
            fill-opacity="0.7"
            fill="pink"
            stroke="black"/>
      <rect x="450"
            y="-30"
            width="30"
            height="30"
            fill-opacity="0.7"
            fill="purple"
            stroke="black"/>
      <text x="500" y="-60" font-size="35" text-anchor="start">Positive</text>
      <text x="500" y="-120" font-size="35" text-anchor="start">Negative</text>
      <text x="500" y="-0" font-size="35" text-anchor="start">Neutral</text>
      <rect x="95"
            y="-105"
            width="10"
            height="10"
            fill="purple"
            fill-opacity=".7"
            stroke="black"
            transform="rotate(45 100, -100)"/>
      <circle cx="100"
              cy="-100"
              r="0"
              fill="pink"
              fill-opacity=".7"
              stroke="black"/>
      <rect x="95"
            y="-205"
            width="10"
            height="10"
            fill="purple"
            fill-opacity=".7"
            stroke="black"
            transform="rotate(45 100, -200)"/>
      <circle cx="100"
              cy="-200"
              r="0"
              fill="pink"
              fill-opacity=".7"
              stroke="black"/>
      <circle cx="100"
              cy="-300"
              r="20"
              fill="pink"
              fill-opacity=".7"
              stroke="black"/>
      <circle cx="200"
              cy="-100"
              r="20"
              fill="pink"
              fill-opacity=".7"
              stroke="black"/>
      <rect x="195"
            y="-205"
            width="10"
            height="10"
            fill="purple"
            fill-opacity=".7"
            stroke="black"
            transform="rotate(45 200, -200)"/>
      <circle cx="200"
              cy="-200"
              r="0"
              fill="pink"
              fill-opacity=".7"
              stroke="black"/>
      <rect x="195"
            y="-305"
            width="10"
            height="10"
            fill="purple"
            fill-opacity=".7"
            stroke="black"
            transform="rotate(45 200, -300)"/>
      <circle cx="200"
              cy="-300"
              r="0"
              fill="pink"
              fill-opacity=".7"
              stroke="black"/>
      <rect x="295"
            y="-105"
            width="10"
            height="10"
            fill="purple"
            fill-opacity=".7"
            stroke="black"
            transform="rotate(45 300, -100)"/>
      <circle cx="300"
              cy="-100"
              r="0"
              fill="pink"
              fill-opacity=".7"
              stroke="black"/>
      <circle cx="300"
              cy="-200"
              r="20"
              fill="pink"
              fill-opacity=".7"
              stroke="black"/>
      <rect x="295"
            y="-305"
            width="10"
            height="10"
            fill="purple"
            fill-opacity=".7"
            stroke="black"
            transform="rotate(45 300, -300)"/>
      <circle cx="300"
              cy="-300"
              r="0"
              fill="pink"
              fill-opacity=".7"
              stroke="black"/>
   </g>
</svg>
