<svg xmlns="http://www.w3.org/2000/svg" height="850" width="100%">
   <g transform="translate(150, 700) scale(.7)">
      <line x1="0"
            x2="1100"
            y1="0"
            y2="0"
            stroke="black"
            stroke-width="1"
            stroke-linecap="square"/>
      <line x1="0"
            x2="0"
            y1="0"
            y2="-700"
            stroke="black"
            stroke-width="1"
            stroke-linecap="square"/>
      <text x="100"
            y="20"
            text-anchor="middle"
            transform="rotate(227, 100, 45)"
            writing-mode="tb">Long Nose</text>
      <line x1="100"
            x2="100"
            y1="0"
            y2="-700"
            stroke="black"
            stroke-dasharray="8 4"
            stroke-width="1"/>
      <text x="200"
            y="20"
            text-anchor="middle"
            transform="rotate(227, 200, 45)"
            writing-mode="tb">North Wind</text>
      <line x1="200"
            x2="200"
            y1="0"
            y2="-700"
            stroke="black"
            stroke-dasharray="8 4"
            stroke-width="1"/>
      <text x="300"
            y="20"
            text-anchor="middle"
            transform="rotate(227, 300, 45)"
            writing-mode="tb">Prince</text>
      <line x1="300"
            x2="300"
            y1="0"
            y2="-700"
            stroke="black"
            stroke-dasharray="8 4"
            stroke-width="1"/>
      <text x="400"
            y="20"
            text-anchor="middle"
            transform="rotate(227, 400, 45)"
            writing-mode="tb">Trolls</text>
      <line x1="400"
            x2="400"
            y1="0"
            y2="-700"
            stroke="black"
            stroke-dasharray="8 4"
            stroke-width="1"/>
      <text x="500"
            y="20"
            text-anchor="middle"
            transform="rotate(227, 500, 45)"
            writing-mode="tb">West Wind</text>
      <line x1="500"
            x2="500"
            y1="0"
            y2="-700"
            stroke="black"
            stroke-dasharray="8 4"
            stroke-width="1"/>
      <text x="600"
            y="20"
            text-anchor="middle"
            transform="rotate(227, 600, 45)"
            writing-mode="tb">White Bear</text>
      <line x1="600"
            x2="600"
            y1="0"
            y2="-700"
            stroke="black"
            stroke-dasharray="8 4"
            stroke-width="1"/>
      <text x="700"
            y="20"
            text-anchor="middle"
            transform="rotate(227, 700, 45)"
            writing-mode="tb">daughter</text>
      <line x1="700"
            x2="700"
            y1="0"
            y2="-700"
            stroke="black"
            stroke-dasharray="8 4"
            stroke-width="1"/>
      <text x="800"
            y="20"
            text-anchor="middle"
            transform="rotate(227, 800, 45)"
            writing-mode="tb">family</text>
      <line x1="800"
            x2="800"
            y1="0"
            y2="-700"
            stroke="black"
            stroke-dasharray="8 4"
            stroke-width="1"/>
      <text x="900"
            y="20"
            text-anchor="middle"
            transform="rotate(227, 900, 45)"
            writing-mode="tb">father</text>
      <line x1="900"
            x2="900"
            y1="0"
            y2="-700"
            stroke="black"
            stroke-dasharray="8 4"
            stroke-width="1"/>
      <text x="1000"
            y="20"
            text-anchor="middle"
            transform="rotate(227, 1000, 45)"
            writing-mode="tb">step mother</text>
      <line x1="1000"
            x2="1000"
            y1="0"
            y2="-700"
            stroke="black"
            stroke-dasharray="8 4"
            stroke-width="1"/>
      <text x="-40" y="-100" text-anchor="middle">East Wind</text>
      <line x1="0"
            x2="1100"
            y1="-100"
            y2="-100"
            stroke="black"
            stroke-dasharray="8 4"
            stroke-width="1"/>
      <text x="-40" y="-200" text-anchor="middle">Narrator</text>
      <line x1="0"
            x2="1100"
            y1="-200"
            y2="-200"
            stroke="black"
            stroke-dasharray="8 4"
            stroke-width="1"/>
      <text x="-40" y="-300" text-anchor="middle">Prince</text>
      <line x1="0"
            x2="1100"
            y1="-300"
            y2="-300"
            stroke="black"
            stroke-dasharray="8 4"
            stroke-width="1"/>
      <text x="-40" y="-400" text-anchor="middle">South Wind</text>
      <line x1="0"
            x2="1100"
            y1="-400"
            y2="-400"
            stroke="black"
            stroke-dasharray="8 4"
            stroke-width="1"/>
      <text x="-40" y="-500" text-anchor="middle">daughter</text>
      <line x1="0"
            x2="1100"
            y1="-500"
            y2="-500"
            stroke="black"
            stroke-dasharray="8 4"
            stroke-width="1"/>
      <text x="-40" y="-600" text-anchor="middle">father</text>
      <line x1="0"
            x2="1100"
            y1="-600"
            y2="-600"
            stroke="black"
            stroke-dasharray="8 4"
            stroke-width="1"/>
      <text x="550" y="-750" font-size="40" text-anchor="middle">
                        Relationships in Character Descriptors 
                    </text>
      <text x="-110"
            y="-350"
            font-size="35"
            transform="rotate(-90 -110, -350)"
            text-anchor="middle">
                        Speakers </text>
      <text x="550" y="150" font-size="35" text-anchor="middle">
                        Subjects </text>
      <rect x="1150"
            y="-90"
            width="30"
            height="30"
            fill-opacity="0.7"
            fill="skyblue"
            stroke="black"/>
      <rect x="1150"
            y="-150"
            width="30"
            height="30"
            fill-opacity="0.7"
            fill="pink"
            stroke="black"/>
      <rect x="1150"
            y="-30"
            width="30"
            height="30"
            fill-opacity="0.7"
            fill="purple"
            stroke="black"/>
      <text x="1200" y="-60" font-size="35" text-anchor="start">Positive</text>
      <text x="1200" y="-120" font-size="35" text-anchor="start">Negative</text>
      <text x="1200" y="-0" font-size="35" text-anchor="start">Neutral</text>
      <rect x="95"
            y="-105"
            width="10"
            height="10"
            fill="purple"
            fill-opacity=".7"
            stroke="black"
            transform="rotate(45 100, -100)"/>
      <circle cx="100"
              cy="-100"
              r="0"
              fill="pink"
              fill-opacity=".7"
              stroke="black"/>
      <circle cx="100"
              cy="-200"
              r="20"
              fill="pink"
              fill-opacity=".7"
              stroke="black"/>
      <circle cx="100"
              cy="-300"
              r="20"
              fill="pink"
              fill-opacity=".7"
              stroke="black"/>
      <rect x="95"
            y="-405"
            width="10"
            height="10"
            fill="purple"
            fill-opacity=".7"
            stroke="black"
            transform="rotate(45 100, -400)"/>
      <circle cx="100"
              cy="-400"
              r="0"
              fill="pink"
              fill-opacity=".7"
              stroke="black"/>
      <circle cx="100"
              cy="-500"
              r="20"
              fill="pink"
              fill-opacity=".7"
              stroke="black"/>
      <rect x="95"
            y="-605"
            width="10"
            height="10"
            fill="purple"
            fill-opacity=".7"
            stroke="black"
            transform="rotate(45 100, -600)"/>
      <circle cx="100"
              cy="-600"
              r="0"
              fill="pink"
              fill-opacity=".7"
              stroke="black"/>
      <rect x="195"
            y="-105"
            width="10"
            height="10"
            fill="purple"
            fill-opacity=".7"
            stroke="black"
            transform="rotate(45 200, -100)"/>
      <circle cx="200"
              cy="-100"
              r="0"
              fill="pink"
              fill-opacity=".7"
              stroke="black"/>
      <circle cx="200"
              cy="-200"
              r="40"
              fill="pink"
              fill-opacity=".7"
              stroke="black"/>
      <rect x="195"
            y="-305"
            width="10"
            height="10"
            fill="purple"
            fill-opacity=".7"
            stroke="black"
            transform="rotate(45 200, -300)"/>
      <circle cx="200"
              cy="-300"
              r="0"
              fill="pink"
              fill-opacity=".7"
              stroke="black"/>
      <circle cx="200"
              cy="-400"
              r="40"
              fill="skyblue"
              fill-opacity=".7"
              stroke="black"/>
      <rect x="195"
            y="-505"
            width="10"
            height="10"
            fill="purple"
            fill-opacity=".7"
            stroke="black"
            transform="rotate(45 200, -500)"/>
      <circle cx="200"
              cy="-500"
              r="0"
              fill="pink"
              fill-opacity=".7"
              stroke="black"/>
      <rect x="195"
            y="-605"
            width="10"
            height="10"
            fill="purple"
            fill-opacity=".7"
            stroke="black"
            transform="rotate(45 200, -600)"/>
      <circle cx="200"
              cy="-600"
              r="0"
              fill="pink"
              fill-opacity=".7"
              stroke="black"/>
      <rect x="295"
            y="-105"
            width="10"
            height="10"
            fill="purple"
            fill-opacity=".7"
            stroke="black"
            transform="rotate(45 300, -100)"/>
      <circle cx="300"
              cy="-100"
              r="0"
              fill="pink"
              fill-opacity=".7"
              stroke="black"/>
      <circle cx="300"
              cy="-200"
              r="40"
              fill="skyblue"
              fill-opacity=".7"
              stroke="black"/>
      <rect x="295"
            y="-305"
            width="10"
            height="10"
            fill="purple"
            fill-opacity=".7"
            stroke="black"
            transform="rotate(45 300, -300)"/>
      <circle cx="300"
              cy="-300"
              r="0"
              fill="pink"
              fill-opacity=".7"
              stroke="black"/>
      <rect x="295"
            y="-405"
            width="10"
            height="10"
            fill="purple"
            fill-opacity=".7"
            stroke="black"
            transform="rotate(45 300, -400)"/>
      <circle cx="300"
              cy="-400"
              r="0"
              fill="pink"
              fill-opacity=".7"
              stroke="black"/>
      <rect x="295"
            y="-505"
            width="10"
            height="10"
            fill="purple"
            fill-opacity=".7"
            stroke="black"
            transform="rotate(45 300, -500)"/>
      <circle cx="300"
              cy="-500"
              r="0"
              fill="pink"
              fill-opacity=".7"
              stroke="black"/>
      <rect x="295"
            y="-605"
            width="10"
            height="10"
            fill="purple"
            fill-opacity=".7"
            stroke="black"
            transform="rotate(45 300, -600)"/>
      <circle cx="300"
              cy="-600"
              r="0"
              fill="pink"
              fill-opacity=".7"
              stroke="black"/>
      <rect x="395"
            y="-105"
            width="10"
            height="10"
            fill="purple"
            fill-opacity=".7"
            stroke="black"
            transform="rotate(45 400, -100)"/>
      <circle cx="400"
              cy="-100"
              r="0"
              fill="pink"
              fill-opacity=".7"
              stroke="black"/>
      <rect x="395"
            y="-205"
            width="10"
            height="10"
            fill="purple"
            fill-opacity=".7"
            stroke="black"
            transform="rotate(45 400, -200)"/>
      <circle cx="400"
              cy="-200"
              r="0"
              fill="pink"
              fill-opacity=".7"
              stroke="black"/>
      <circle cx="400"
              cy="-300"
              r="20"
              fill="pink"
              fill-opacity=".7"
              stroke="black"/>
      <rect x="395"
            y="-405"
            width="10"
            height="10"
            fill="purple"
            fill-opacity=".7"
            stroke="black"
            transform="rotate(45 400, -400)"/>
      <circle cx="400"
              cy="-400"
              r="0"
              fill="pink"
              fill-opacity=".7"
              stroke="black"/>
      <rect x="395"
            y="-505"
            width="10"
            height="10"
            fill="purple"
            fill-opacity=".7"
            stroke="black"
            transform="rotate(45 400, -500)"/>
      <circle cx="400"
              cy="-500"
              r="0"
              fill="pink"
              fill-opacity=".7"
              stroke="black"/>
      <rect x="395"
            y="-605"
            width="10"
            height="10"
            fill="purple"
            fill-opacity=".7"
            stroke="black"
            transform="rotate(45 400, -600)"/>
      <circle cx="400"
              cy="-600"
              r="0"
              fill="pink"
              fill-opacity=".7"
              stroke="black"/>
      <circle cx="500"
              cy="-100"
              r="20"
              fill="skyblue"
              fill-opacity=".7"
              stroke="black"/>
      <rect x="495"
            y="-205"
            width="10"
            height="10"
            fill="purple"
            fill-opacity=".7"
            stroke="black"
            transform="rotate(45 500, -200)"/>
      <circle cx="500"
              cy="-200"
              r="0"
              fill="pink"
              fill-opacity=".7"
              stroke="black"/>
      <rect x="495"
            y="-305"
            width="10"
            height="10"
            fill="purple"
            fill-opacity=".7"
            stroke="black"
            transform="rotate(45 500, -300)"/>
      <circle cx="500"
              cy="-300"
              r="0"
              fill="pink"
              fill-opacity=".7"
              stroke="black"/>
      <rect x="495"
            y="-405"
            width="10"
            height="10"
            fill="purple"
            fill-opacity=".7"
            stroke="black"
            transform="rotate(45 500, -400)"/>
      <circle cx="500"
              cy="-400"
              r="0"
              fill="pink"
              fill-opacity=".7"
              stroke="black"/>
      <rect x="495"
            y="-505"
            width="10"
            height="10"
            fill="purple"
            fill-opacity=".7"
            stroke="black"
            transform="rotate(45 500, -500)"/>
      <circle cx="500"
              cy="-500"
              r="0"
              fill="pink"
              fill-opacity=".7"
              stroke="black"/>
      <rect x="495"
            y="-605"
            width="10"
            height="10"
            fill="purple"
            fill-opacity=".7"
            stroke="black"
            transform="rotate(45 500, -600)"/>
      <circle cx="500"
              cy="-600"
              r="0"
              fill="pink"
              fill-opacity=".7"
              stroke="black"/>
      <rect x="595"
            y="-105"
            width="10"
            height="10"
            fill="purple"
            fill-opacity=".7"
            stroke="black"
            transform="rotate(45 600, -100)"/>
      <circle cx="600"
              cy="-100"
              r="0"
              fill="pink"
              fill-opacity=".7"
              stroke="black"/>
      <circle cx="600"
              cy="-200"
              r="20"
              fill="skyblue"
              fill-opacity=".7"
              stroke="black"/>
      <rect x="595"
            y="-305"
            width="10"
            height="10"
            fill="purple"
            fill-opacity=".7"
            stroke="black"
            transform="rotate(45 600, -300)"/>
      <circle cx="600"
              cy="-300"
              r="0"
              fill="pink"
              fill-opacity=".7"
              stroke="black"/>
      <rect x="595"
            y="-405"
            width="10"
            height="10"
            fill="purple"
            fill-opacity=".7"
            stroke="black"
            transform="rotate(45 600, -400)"/>
      <circle cx="600"
              cy="-400"
              r="0"
              fill="pink"
              fill-opacity=".7"
              stroke="black"/>
      <rect x="595"
            y="-505"
            width="10"
            height="10"
            fill="purple"
            fill-opacity=".7"
            stroke="black"
            transform="rotate(45 600, -500)"/>
      <circle cx="600"
              cy="-500"
              r="0"
              fill="pink"
              fill-opacity=".7"
              stroke="black"/>
      <circle cx="600"
              cy="-600"
              r="20"
              fill="skyblue"
              fill-opacity=".7"
              stroke="black"/>
      <rect x="695"
            y="-105"
            width="10"
            height="10"
            fill="purple"
            fill-opacity=".7"
            stroke="black"
            transform="rotate(45 700, -100)"/>
      <circle cx="700"
              cy="-100"
              r="0"
              fill="pink"
              fill-opacity=".7"
              stroke="black"/>
      <rect x="695"
            y="-205"
            width="10"
            height="10"
            fill="purple"
            fill-opacity=".7"
            stroke="black"
            transform="rotate(45 700, -200)"/>
      <circle cx="700"
              cy="-200"
              r="0"
              fill="pink"
              fill-opacity=".7"
              stroke="black"/>
      <rect x="695"
            y="-305"
            width="10"
            height="10"
            fill="purple"
            fill-opacity=".7"
            stroke="black"
            transform="rotate(45 700, -300)"/>
      <circle cx="700"
              cy="-300"
              r="0"
              fill="pink"
              fill-opacity=".7"
              stroke="black"/>
      <rect x="695"
            y="-405"
            width="10"
            height="10"
            fill="purple"
            fill-opacity=".7"
            stroke="black"
            transform="rotate(45 700, -400)"/>
      <circle cx="700"
              cy="-400"
              r="0"
              fill="pink"
              fill-opacity=".7"
              stroke="black"/>
      <circle cx="700"
              cy="-500"
              r="40"
              fill="pink"
              fill-opacity=".7"
              stroke="black"/>
      <rect x="695"
            y="-605"
            width="10"
            height="10"
            fill="purple"
            fill-opacity=".7"
            stroke="black"
            transform="rotate(45 700, -600)"/>
      <circle cx="700"
              cy="-600"
              r="0"
              fill="pink"
              fill-opacity=".7"
              stroke="black"/>
      <rect x="795"
            y="-105"
            width="10"
            height="10"
            fill="purple"
            fill-opacity=".7"
            stroke="black"
            transform="rotate(45 800, -100)"/>
      <circle cx="800"
              cy="-100"
              r="0"
              fill="pink"
              fill-opacity=".7"
              stroke="black"/>
      <circle cx="800"
              cy="-200"
              r="20"
              fill="skyblue"
              fill-opacity=".7"
              stroke="black"/>
      <rect x="795"
            y="-305"
            width="10"
            height="10"
            fill="purple"
            fill-opacity=".7"
            stroke="black"
            transform="rotate(45 800, -300)"/>
      <circle cx="800"
              cy="-300"
              r="0"
              fill="pink"
              fill-opacity=".7"
              stroke="black"/>
      <rect x="795"
            y="-405"
            width="10"
            height="10"
            fill="purple"
            fill-opacity=".7"
            stroke="black"
            transform="rotate(45 800, -400)"/>
      <circle cx="800"
              cy="-400"
              r="0"
              fill="pink"
              fill-opacity=".7"
              stroke="black"/>
      <rect x="795"
            y="-505"
            width="10"
            height="10"
            fill="purple"
            fill-opacity=".7"
            stroke="black"
            transform="rotate(45 800, -500)"/>
      <circle cx="800"
              cy="-500"
              r="0"
              fill="pink"
              fill-opacity=".7"
              stroke="black"/>
      <rect x="795"
            y="-605"
            width="10"
            height="10"
            fill="purple"
            fill-opacity=".7"
            stroke="black"
            transform="rotate(45 800, -600)"/>
      <circle cx="800"
              cy="-600"
              r="0"
              fill="pink"
              fill-opacity=".7"
              stroke="black"/>
      <rect x="895"
            y="-105"
            width="10"
            height="10"
            fill="purple"
            fill-opacity=".7"
            stroke="black"
            transform="rotate(45 900, -100)"/>
      <circle cx="900"
              cy="-100"
              r="0"
              fill="pink"
              fill-opacity=".7"
              stroke="black"/>
      <rect x="895"
            y="-205"
            width="10"
            height="10"
            fill="purple"
            fill-opacity=".7"
            stroke="black"
            transform="rotate(45 900, -200)"/>
      <circle cx="900"
              cy="-200"
              r="0"
              fill="pink"
              fill-opacity=".7"
              stroke="black"/>
      <rect x="895"
            y="-305"
            width="10"
            height="10"
            fill="purple"
            fill-opacity=".7"
            stroke="black"
            transform="rotate(45 900, -300)"/>
      <circle cx="900"
              cy="-300"
              r="0"
              fill="pink"
              fill-opacity=".7"
              stroke="black"/>
      <rect x="895"
            y="-405"
            width="10"
            height="10"
            fill="purple"
            fill-opacity=".7"
            stroke="black"
            transform="rotate(45 900, -400)"/>
      <circle cx="900"
              cy="-400"
              r="0"
              fill="pink"
              fill-opacity=".7"
              stroke="black"/>
      <rect x="895"
            y="-505"
            width="10"
            height="10"
            fill="purple"
            fill-opacity=".7"
            stroke="black"
            transform="rotate(45 900, -500)"/>
      <circle cx="900"
              cy="-500"
              r="0"
              fill="pink"
              fill-opacity=".7"
              stroke="black"/>
      <rect x="895"
            y="-605"
            width="10"
            height="10"
            fill="purple"
            fill-opacity=".7"
            stroke="black"
            transform="rotate(45 900, -600)"/>
      <circle cx="900"
              cy="-600"
              r="0"
              fill="pink"
              fill-opacity=".7"
              stroke="black"/>
      <rect x="995"
            y="-105"
            width="10"
            height="10"
            fill="purple"
            fill-opacity=".7"
            stroke="black"
            transform="rotate(45 1000, -100)"/>
      <circle cx="1000"
              cy="-100"
              r="0"
              fill="pink"
              fill-opacity=".7"
              stroke="black"/>
      <circle cx="1000"
              cy="-200"
              r="20"
              fill="pink"
              fill-opacity=".7"
              stroke="black"/>
      <rect x="995"
            y="-305"
            width="10"
            height="10"
            fill="purple"
            fill-opacity=".7"
            stroke="black"
            transform="rotate(45 1000, -300)"/>
      <circle cx="1000"
              cy="-300"
              r="0"
              fill="pink"
              fill-opacity=".7"
              stroke="black"/>
      <rect x="995"
            y="-405"
            width="10"
            height="10"
            fill="purple"
            fill-opacity=".7"
            stroke="black"
            transform="rotate(45 1000, -400)"/>
      <circle cx="1000"
              cy="-400"
              r="0"
              fill="pink"
              fill-opacity=".7"
              stroke="black"/>
      <rect x="995"
            y="-505"
            width="10"
            height="10"
            fill="purple"
            fill-opacity=".7"
            stroke="black"
            transform="rotate(45 1000, -500)"/>
      <circle cx="1000"
              cy="-500"
              r="0"
              fill="pink"
              fill-opacity=".7"
              stroke="black"/>
      <rect x="995"
            y="-605"
            width="10"
            height="10"
            fill="purple"
            fill-opacity=".7"
            stroke="black"
            transform="rotate(45 1000, -600)"/>
      <circle cx="1000"
              cy="-600"
              r="0"
              fill="pink"
              fill-opacity=".7"
              stroke="black"/>
   </g>
</svg>
